<svg width="18" height="18" viewBox="0 0 18 18" fill="none" xmlns="http://www.w3.org/2000/svg">
<g id="vuesax/outline/edit">
<g id="edit">
<path id="Vector" d="M11.25 17.0625H6.75C2.6775 17.0625 0.9375 15.3225 0.9375 11.25V6.75C0.9375 2.6775 2.6775 0.9375 6.75 0.9375H8.25C8.5575 0.9375 8.8125 1.1925 8.8125 1.5C8.8125 1.8075 8.5575 2.0625 8.25 2.0625H6.75C3.2925 2.0625 2.0625 3.2925 2.0625 6.75V11.25C2.0625 14.7075 3.2925 15.9375 6.75 15.9375H11.25C14.7075 15.9375 15.9375 14.7075 15.9375 11.25V9.75C15.9375 9.4425 16.1925 9.1875 16.5 9.1875C16.8075 9.1875 17.0625 9.4425 17.0625 9.75V11.25C17.0625 15.3225 15.3225 17.0625 11.25 17.0625Z" fill="#637381"/>
<path id="Vector_2" d="M6.37451 13.2679C5.91701 13.2679 5.49701 13.1029 5.18951 12.8029C4.82201 12.4354 4.66451 11.9029 4.74701 11.3404L5.06951 9.08291C5.12951 8.64791 5.41451 8.08541 5.72201 7.77791L11.632 1.86791C13.1245 0.37541 14.6395 0.37541 16.132 1.86791C16.9495 2.68541 17.317 3.51791 17.242 4.35041C17.1745 5.02541 16.8145 5.68541 16.132 6.36041L10.222 12.2704C9.91451 12.5779 9.35201 12.8629 8.91701 12.9229L6.65951 13.2454C6.56201 13.2679 6.46451 13.2679 6.37451 13.2679ZM12.427 2.66291L6.51701 8.57291C6.37451 8.71541 6.20951 9.04541 6.17951 9.24041L5.85701 11.4979C5.82701 11.7154 5.87201 11.8954 5.98451 12.0079C6.09701 12.1204 6.27701 12.1654 6.49451 12.1354L8.75201 11.8129C8.94701 11.7829 9.28451 11.6179 9.41951 11.4754L15.3295 5.56541C15.817 5.07791 16.072 4.64291 16.1095 4.23791C16.1545 3.75041 15.8995 3.23291 15.3295 2.65541C14.1295 1.45541 13.3045 1.79291 12.427 2.66291Z" fill="#637381"/>
<path id="Vector_3" d="M14.8872 7.3727C14.8347 7.3727 14.7822 7.3652 14.7372 7.3502C12.7647 6.7952 11.1972 5.2277 10.6422 3.2552C10.5597 2.9552 10.7322 2.6477 11.0322 2.5577C11.3322 2.4752 11.6397 2.6477 11.7222 2.9477C12.1722 4.5452 13.4397 5.8127 15.0372 6.2627C15.3372 6.3452 15.5097 6.6602 15.4272 6.9602C15.3597 7.2152 15.1347 7.3727 14.8872 7.3727Z" fill="#637381"/>
</g>
</g>
</svg>
